<?xml version="1.0" encoding="utf-8"?>
<!-- Generator: Adobe Illustrator 23.0.1, SVG Export Plug-In . SVG Version: 6.00 Build 0)  -->
<svg version="1.1" id="Layer_1" xmlns="http://www.w3.org/2000/svg" xmlns:xlink="http://www.w3.org/1999/xlink" x="0px" y="0px"
	 viewBox="0 0 384 512" style="enable-background:new 0 0 384 512;" xml:space="preserve">
<style type="text/css">
	.st0{fill:#6F6F6F;}
</style>
<path class="st0" d="M310.2,242.6c27.7-14.2,45.4-39.4,41.3-81.3C346.1,104,299,84.8,236.6,79.4V0h-48.5v77.2
	c-12.6,0-25.5,0.3-38.4,0.6V0h-48.5v79.4c-17.8,0.5-38.6,0.3-97.4,0v51.7c38.3-0.7,58.4-3.1,63,21.4v217.4
	c-2.9,19.5-18.5,16.7-53.3,16.1l-9.8,57.7c88.5,0,97.4,0.3,97.4,0.3v68h48.5v-67.1c13.2,0.3,26.2,0.3,38.4,0.3V512h48.5v-68
	c81.3-4.4,135.6-24.9,142.9-101.5C385.2,281.1,356.2,253.7,310.2,242.6L310.2,242.6z M150.6,134.6c27.4,0,113.1-8.5,113.1,48.5
	c0,54.5-85.7,48.2-113.1,48.2V134.6L150.6,134.6z M150.6,386.3V279.8c32.8,0,133.1-9.1,133.1,53.3
	C283.7,393.3,183.4,386.3,150.6,386.3L150.6,386.3z"/>
</svg>
