<?xml version="1.0" encoding="utf-8"?>
<!-- Generator: Adobe Illustrator 23.0.1, SVG Export Plug-In . SVG Version: 6.00 Build 0)  -->
<svg version="1.1" id="Layer_1" xmlns="http://www.w3.org/2000/svg" xmlns:xlink="http://www.w3.org/1999/xlink" x="0px" y="0px"
	 viewBox="0 0 448 512" style="enable-background:new 0 0 448 512;" xml:space="preserve">
<style type="text/css">
	.st0{fill:#6F6F6F;}
</style>
<path class="st0" d="M400,256H152V152.9c0-39.6,31.7-72.5,71.3-72.9c40-0.4,72.7,32.1,72.7,72v16c0,13.3,10.7,24,24,24h32
	c13.3,0,24-10.7,24-24v-16C376,68,307.5-0.3,223.5,0S72,69.5,72,153.5V256H48c-26.5,0-48,21.5-48,48v160c0,26.5,21.5,48,48,48h352
	c26.5,0,48-21.5,48-48V304C448,277.5,426.5,256,400,256z M264,408c0,22.1-17.9,40-40,40s-40-17.9-40-40v-48c0-22.1,17.9-40,40-40
	s40,17.9,40,40V408z"/>
</svg>
