<?xml version="1.0" encoding="utf-8"?>
<!-- Generator: Adobe Illustrator 23.0.1, SVG Export Plug-In . SVG Version: 6.00 Build 0)  -->
<!DOCTYPE svg [
	<!ENTITY ns_extend "http://ns.adobe.com/Extensibility/1.0/">
	<!ENTITY ns_ai "http://ns.adobe.com/AdobeIllustrator/10.0/">
	<!ENTITY ns_graphs "http://ns.adobe.com/Graphs/1.0/">
	<!ENTITY ns_vars "http://ns.adobe.com/Variables/1.0/">
	<!ENTITY ns_imrep "http://ns.adobe.com/ImageReplacement/1.0/">
	<!ENTITY ns_sfw "http://ns.adobe.com/SaveForWeb/1.0/">
	<!ENTITY ns_custom "http://ns.adobe.com/GenericCustomNamespace/1.0/">
	<!ENTITY ns_adobe_xpath "http://ns.adobe.com/XPath/1.0/">
]>
<svg version="1.2" baseProfile="tiny" id="Layer_1" xmlns:x="&ns_extend;" xmlns:i="&ns_ai;" xmlns:graph="&ns_graphs;"
	 xmlns="http://www.w3.org/2000/svg" xmlns:xlink="http://www.w3.org/1999/xlink" x="0px" y="0px" viewBox="0 0 102.1 39.7"
	 xml:space="preserve">
<metadata>
	<sfw  xmlns="&ns_sfw;">
		<slices></slices>
		<sliceSourceBounds  bottomLeftOrigin="true" height="36.9" width="95.4" x="3" y="1.6"></sliceSourceBounds>
	</sfw>
</metadata>
<path fill="none" stroke="#00B1BF" stroke-miterlimit="10" d="M93.2,37.6h-85c-2.6,0-4.7-2.1-4.7-4.7V6.4c0-2.6,2.1-4.7,4.7-4.7h85
	c2.6,0,4.7,2.1,4.7,4.7v26.5C97.9,35.5,95.8,37.6,93.2,37.6z"/>
<path fill="none" stroke="#00B1BF" stroke-miterlimit="10" d="M24.6,14.8h-8.8c-0.5,0-1-0.4-1-1V7c0-0.5,0.4-1,1-1h8.8
	c0.5,0,1,0.4,1,1v6.8C25.6,14.3,25.2,14.8,24.6,14.8z"/>
<path fill="none" stroke="#00B1BF" stroke-miterlimit="10" d="M24.6,32.9h-8.8c-0.5,0-1-0.4-1-1V25c0-0.5,0.4-1,1-1h8.8
	c0.5,0,1,0.4,1,1v6.9C25.6,32.4,25.2,32.9,24.6,32.9z"/>
<path fill="none" stroke="#00B1BF" stroke-miterlimit="10" d="M85.3,32.9h-8.8c-0.5,0-1-0.4-1-1V25c0-0.5,0.4-1,1-1h8.8
	c0.5,0,1,0.4,1,1v6.9C86.2,32.4,85.8,32.9,85.3,32.9z"/>
<path fill="none" stroke="#00B1BF" stroke-miterlimit="10" d="M85.3,14.8h-8.8c-0.5,0-1-0.4-1-1V7c0-0.5,0.4-1,1-1h8.8
	c0.5,0,1,0.4,1,1v6.8C86.2,14.3,85.8,14.8,85.3,14.8z"/>
<path fill="none" stroke="#00B1BF" stroke-miterlimit="10" d="M67.6,31.5H33.5c-0.6,0-1-0.5-1-1V13.8c0-0.6,0.5-1,1-1h34.1
	c0.6,0,1,0.4,1,1v16.7C68.6,31.1,68.2,31.5,67.6,31.5z"/>
<g>
	<path fill="#00B1BF" d="M36.521,7.57c0,0.211-0.028,0.411-0.084,0.598c-0.056,0.188-0.136,0.357-0.238,0.509
		s-0.226,0.286-0.371,0.4s-0.307,0.204-0.484,0.27l0.965,0.765h-1.196l-0.793-0.638h-0.813c-0.273,0-0.526-0.047-0.758-0.141
		c-0.233-0.094-0.434-0.226-0.604-0.395c-0.169-0.169-0.302-0.371-0.398-0.604c-0.096-0.232-0.145-0.487-0.145-0.765V6.7
		c0-0.275,0.048-0.529,0.145-0.763s0.229-0.435,0.398-0.603c0.169-0.168,0.371-0.3,0.604-0.395c0.232-0.096,0.485-0.143,0.758-0.143
		h1.117c0.273,0,0.525,0.047,0.757,0.143c0.232,0.095,0.432,0.227,0.602,0.395c0.169,0.168,0.301,0.369,0.397,0.603
		c0.095,0.234,0.143,0.488,0.143,0.763V7.57z M35.696,6.7c0-0.163-0.026-0.311-0.078-0.443s-0.125-0.245-0.219-0.339
		s-0.207-0.167-0.339-0.219s-0.278-0.078-0.437-0.078h-1.117c-0.161,0-0.307,0.026-0.439,0.078s-0.246,0.125-0.341,0.219
		s-0.169,0.207-0.221,0.339s-0.078,0.28-0.078,0.443v0.87c0,0.163,0.026,0.311,0.078,0.443s0.125,0.245,0.221,0.339
		s0.209,0.167,0.341,0.219s0.279,0.078,0.439,0.078h1.111c0.161,0,0.307-0.026,0.439-0.078s0.246-0.125,0.341-0.219
		s0.169-0.207,0.221-0.339s0.078-0.28,0.078-0.443V6.7z"/>
	<path fill="#00B1BF" d="M41.796,8.995c0,0.06-0.011,0.114-0.032,0.165s-0.051,0.095-0.089,0.132s-0.083,0.066-0.133,0.087
		s-0.104,0.032-0.162,0.032h-1.859c-0.176,0-0.354-0.019-0.533-0.057c-0.18-0.038-0.354-0.097-0.522-0.176
		c-0.168-0.079-0.326-0.18-0.475-0.303c-0.148-0.123-0.277-0.269-0.389-0.437C37.491,8.27,37.404,8.077,37.34,7.86
		s-0.095-0.458-0.095-0.725V4.859h0.825v2.276c0,0.232,0.032,0.429,0.097,0.59c0.064,0.161,0.146,0.295,0.246,0.403
		s0.208,0.192,0.327,0.254c0.119,0.062,0.231,0.107,0.338,0.137c0.107,0.029,0.201,0.048,0.282,0.055s0.135,0.011,0.161,0.011h1.45
		V4.859h0.825V8.995z"/>
	<path fill="#00B1BF" d="M47.22,9.411h-0.825V8.294h-2.901v1.117h-0.825V7.135c0-0.333,0.057-0.638,0.171-0.917
		s0.273-0.52,0.476-0.72c0.203-0.201,0.443-0.358,0.721-0.47c0.277-0.112,0.58-0.168,0.907-0.168h1.86
		c0.057,0,0.111,0.011,0.162,0.032S47.062,4.942,47.1,4.98s0.068,0.083,0.089,0.133s0.032,0.105,0.032,0.162V9.411z M43.494,7.468
		h2.901V5.685h-1.451c-0.025,0-0.079,0.004-0.16,0.011s-0.175,0.026-0.282,0.056c-0.107,0.029-0.22,0.075-0.338,0.136
		c-0.119,0.062-0.228,0.146-0.327,0.254s-0.182,0.243-0.246,0.405c-0.064,0.162-0.097,0.358-0.097,0.589V7.468z"/>
	<path fill="#00B1BF" d="M52.728,9.058c0,0.06-0.012,0.114-0.033,0.165c-0.023,0.051-0.053,0.095-0.09,0.132
		s-0.08,0.066-0.131,0.087s-0.105,0.032-0.162,0.032c-0.051,0-0.102-0.01-0.154-0.028c-0.051-0.02-0.098-0.05-0.139-0.092
		l-3.014-3.148v3.206h-0.826V5.212c0-0.084,0.023-0.161,0.071-0.23c0.047-0.069,0.108-0.12,0.183-0.154
		c0.078-0.032,0.158-0.04,0.241-0.024c0.082,0.016,0.153,0.055,0.212,0.116l3.015,3.146V4.859h0.826V9.058z"/>
	<path fill="#00B1BF" d="M57.799,5.685h-1.819v3.726h-0.824V5.685h-1.822V4.859h4.466V5.685z"/>
	<path fill="#00B1BF" d="M62.864,8.995c0,0.06-0.011,0.114-0.032,0.165c-0.021,0.051-0.051,0.095-0.088,0.132
		c-0.039,0.037-0.083,0.066-0.134,0.087s-0.104,0.032-0.162,0.032h-1.859c-0.176,0-0.354-0.019-0.533-0.057
		s-0.354-0.097-0.522-0.176c-0.168-0.079-0.326-0.18-0.475-0.303c-0.147-0.123-0.277-0.269-0.389-0.437
		c-0.111-0.168-0.198-0.361-0.262-0.578s-0.096-0.458-0.096-0.725V4.859h0.826v2.276c0,0.232,0.032,0.429,0.097,0.59
		c0.064,0.161,0.146,0.295,0.245,0.403c0.1,0.108,0.209,0.192,0.327,0.254c0.119,0.062,0.231,0.107,0.338,0.137
		c0.107,0.029,0.201,0.048,0.283,0.055c0.081,0.007,0.135,0.011,0.16,0.011h1.45V4.859h0.825V8.995z"/>
	<path fill="#00B1BF" d="M69.12,9.411h-0.831V6.7l-1.464,2.574c-0.036,0.066-0.086,0.116-0.15,0.149s-0.134,0.051-0.208,0.051
		c-0.072,0-0.139-0.017-0.201-0.051s-0.112-0.083-0.148-0.149L64.648,6.7v2.71h-0.825V5.212c0-0.095,0.027-0.18,0.084-0.254
		c0.056-0.074,0.13-0.124,0.221-0.149c0.044-0.011,0.089-0.014,0.133-0.011c0.045,0.003,0.088,0.013,0.129,0.029
		c0.041,0.016,0.079,0.038,0.112,0.066c0.034,0.029,0.063,0.063,0.086,0.103l1.879,3.266l1.879-3.266
		c0.049-0.08,0.116-0.137,0.201-0.171c0.086-0.034,0.176-0.04,0.269-0.016c0.089,0.025,0.162,0.075,0.219,0.149
		c0.058,0.074,0.086,0.159,0.086,0.254V9.411z"/>
</g>
<g>
	<path fill="#00B1BF" d="M43.306,25.4h-1.151v-3.753l-2.026,3.563c-0.05,0.092-0.12,0.16-0.208,0.207
		c-0.09,0.047-0.186,0.07-0.288,0.07c-0.1,0-0.193-0.023-0.279-0.07s-0.154-0.115-0.204-0.207l-2.035-3.563V25.4h-1.143v-5.814
		c0-0.132,0.039-0.249,0.117-0.352c0.077-0.103,0.179-0.171,0.305-0.207c0.062-0.015,0.123-0.02,0.185-0.016
		c0.062,0.005,0.121,0.018,0.178,0.04c0.057,0.021,0.109,0.053,0.156,0.092c0.047,0.04,0.086,0.087,0.119,0.143l2.602,4.522
		l2.602-4.522c0.067-0.111,0.16-0.19,0.279-0.237c0.118-0.047,0.242-0.054,0.371-0.022c0.123,0.035,0.224,0.104,0.303,0.207
		s0.119,0.22,0.119,0.352V25.4z"/>
	<path fill="#00B1BF" d="M50.329,25.4h-4.122c-0.158,0-0.331-0.027-0.519-0.084c-0.188-0.055-0.361-0.146-0.521-0.274
		c-0.16-0.127-0.293-0.293-0.399-0.496c-0.107-0.203-0.161-0.453-0.161-0.749v-4.123c0-0.079,0.015-0.154,0.044-0.224
		s0.069-0.132,0.121-0.185s0.112-0.094,0.183-0.123s0.146-0.044,0.229-0.044h5.146v1.143H45.75v3.556
		c0,0.149,0.04,0.264,0.119,0.343s0.195,0.118,0.347,0.118h4.113V25.4z M49.814,22.824h-3.608v-1.151h3.608V22.824z"/>
	<path fill="#00B1BF" d="M57.729,24.911c0,0.083-0.016,0.158-0.046,0.229c-0.031,0.07-0.072,0.132-0.123,0.183
		c-0.052,0.052-0.112,0.092-0.183,0.121s-0.145,0.044-0.225,0.044c-0.07,0-0.141-0.014-0.213-0.039
		c-0.071-0.027-0.136-0.069-0.191-0.128l-4.174-4.359V25.4h-1.142v-5.814c0-0.117,0.032-0.223,0.099-0.319
		c0.065-0.095,0.149-0.166,0.253-0.213c0.107-0.044,0.218-0.055,0.333-0.033c0.113,0.022,0.212,0.076,0.294,0.161l4.175,4.355
		v-4.438h1.143V24.911z"/>
	<path fill="#00B1BF" d="M65.23,24.823c0,0.083-0.015,0.158-0.044,0.229s-0.07,0.132-0.123,0.183
		c-0.053,0.052-0.114,0.092-0.185,0.121S64.734,25.4,64.654,25.4H62.08c-0.244,0-0.49-0.026-0.738-0.079
		c-0.25-0.053-0.49-0.134-0.724-0.244c-0.232-0.109-0.452-0.249-0.657-0.419s-0.384-0.372-0.538-0.604
		c-0.153-0.233-0.274-0.499-0.362-0.8c-0.088-0.3-0.132-0.635-0.132-1.004v-3.151h1.143v3.151c0,0.322,0.045,0.595,0.134,0.817
		c0.09,0.223,0.203,0.408,0.341,0.558s0.288,0.267,0.452,0.352s0.32,0.148,0.469,0.189c0.147,0.041,0.278,0.066,0.391,0.076
		c0.113,0.011,0.188,0.016,0.223,0.016h2.008v-5.159h1.143V24.823z"/>
</g>
</svg>
